# xmcd CD database file
#
# Track frame offsets:
#	150
#	17484
#	38968
#	53517
#	65772
#	87670
#	105296
#	125484
#
# Disc length: 1963 seconds
#
# Revision: 0
# Processed by: cddbd v1.5.2PL0 Copyright (c) Steve Scherf et al.
# Submitted via: CDex 1.51
#
DISCID=6207a908
DTITLE=Blues Abroad - And Now For The Very First Time
DYEAR=1988
DGENRE=Blues
TTITLE0=One Morning
TTITLE1=Sometimes I Wonder
TTITLE2=Jitterbug
TTITLE3=Come Late
TTITLE4=Wait Until Tomorrow
TTITLE5=Monday Morning
TTITLE6=Snoopy's Blues
TTITLE7=Postmann
EXTD=YEAR: 1988
EXTT0=
EXTT1=
EXTT2=
EXTT3=
EXTT4=
EXTT5=
EXTT6=
EXTT7=
PLAYORDER=
